<svg width="89" height="78" viewBox="0 0 89 78" fill="none" xmlns="http://www.w3.org/2000/svg">
<path d="M41.6875 58.0283H47.5285" stroke="#0071C9" stroke-width="3.5"/>
<path d="M35.2764 72.7649V70.1423L28.6699 58.2781L44.6251 31.9272L60.8297 58.2781L54.2232 70.1423V72.7649" stroke="#0071C9" stroke-width="3.5"/>
<path d="M31.4116 75.6372H57.8375" stroke="#0071C9" stroke-width="3.5"/>
<path d="M44.625 56.7794L44.6251 73.0145" stroke="#0071C9" stroke-width="3.5"/>
<path d="M5.56185 44.9152C4.44001 33.1759 15.4092 5.82593 44.4527 5.82593C73.4962 5.82592 84.964 32.9261 83.5929 44.9152" stroke="#0071C9" stroke-width="3.5"/>
<path d="M20.1934 5.70105H68.8069" stroke="#0071C9" stroke-width="3.5"/>
<rect x="40.3911" y="1.5813" width="7.96921" height="7.98995" fill="white" stroke="#0071C9" stroke-width="3"/>
<rect x="1.5" y="45.0417" width="7.96921" height="7.98995" stroke="#0071C9" stroke-width="3"/>
<rect x="79.5308" y="45.0417" width="7.96921" height="7.98995" stroke="#0071C9" stroke-width="3"/>
<path d="M17.4462 5.57626C17.4462 7.64735 15.7712 9.32146 13.7109 9.32146C11.6506 9.32146 9.97559 7.64735 9.97559 5.57626C9.97559 3.50517 11.6506 1.83105 13.7109 1.83105C15.7712 1.83105 17.4462 3.50517 17.4462 5.57626Z" stroke="#0071C9" stroke-width="3"/>
<path d="M79.0238 5.57626C79.0238 7.64735 77.3488 9.32146 75.2885 9.32146C73.2282 9.32146 71.5532 7.64735 71.5532 5.57626C71.5532 3.50517 73.2282 1.83105 75.2885 1.83105C77.3488 1.83105 79.0238 3.50517 79.0238 5.57626Z" stroke="#0071C9" stroke-width="3"/>
</svg>
