<svg width="99" height="77" viewBox="0 0 99 77" fill="none" xmlns="http://www.w3.org/2000/svg">
<path d="M18.0738 7.72603C18.1428 5.18214 15.3837 0.696825 8.5546 2.1027C1.7046 3.51288 1.31171 11.6088 2.55335 14.7552C3.93295 18.3702 8.96849 25.3592 18.0738 29.2152M2.55332 14.7552C3.93292 18.3702 8.96846 25.3592 18.0738 29.2152" stroke="#0071C9" stroke-width="3.5"/>
<path d="M19.0794 76.7264C18.9454 72.4316 21.3701 63.0367 32.1404 61.4262C35.1544 60.9755 39.0392 61.0235 40.9816 61.0235L45.6032 55.1853C45.0004 52.7024 44.3976 46.3273 44.3976 43.1062C42.7901 42.5022 39.1732 41.8983 39.1732 39.2811C39.1732 37.1874 39.1732 34.5166 39.1732 33.4429C39.0392 32.4363 39.8966 30.2218 42.7901 29.4165C42.7901 27.1618 42.3882 22.8401 42.3882 20.9612C42.3882 18.8138 43.7948 14.519 49.421 14.519C51.3501 14.1969 53.1719 13.0426 53.8417 12.5058L57.0567 10.4926C57.9274 9.75444 61.196 8.43916 67.3046 9.08338C69.7158 9.88865 74.3374 9.48603 73.7346 20.9612C72.9309 23.1757 72.9309 24.7862 72.9309 25.7928C72.9309 26.5981 72.7299 30.0205 72.9309 29.4165" stroke="#0071C9" stroke-width="3.5"/>
<path d="M96.4948 76.8988C96.6288 72.604 94.2041 63.2091 83.4338 61.5986C80.4198 61.1479 76.535 61.196 74.5926 61.196L69.971 55.3577C70.5738 52.8748 71.1766 46.4997 71.1766 43.2786C72.7841 42.6747 76.401 42.0707 76.401 39.4536C76.401 37.3599 76.401 34.689 76.401 33.6153C76.535 32.6087 75.6777 30.3942 72.7841 29.589L72.9313 25.9941" stroke="#0071C9" stroke-width="3.4"/>
<path d="M45.604 54.984C49.4888 61.4262 59.9912 70.2439 70.1185 54.7827" stroke="#0071C9" stroke-width="3.4"/>
<path fill-rule="evenodd" clip-rule="evenodd" d="M16.3267 7.77229C16.2784 5.94748 17.1797 3.68857 19.0656 2.09614C21.0302 0.43721 23.9374 -0.407972 27.7188 0.390469C31.8533 1.26343 34.0096 4.25305 34.9174 7.2743C35.7974 10.203 35.5986 13.4082 34.8454 15.3742C33.3364 19.4201 28.0972 26.7705 18.7733 30.8203L18.0642 31.1283L17.359 30.8115L15.4183 29.9397L14.729 29.5451L13.7842 29.0042L13.377 28.771L14.7171 25.7878L18.0759 27.2966C26.0568 23.5837 30.416 17.242 31.5684 14.1449L31.5718 14.1358L31.5753 14.1268C32.0297 12.9456 32.2426 10.5352 31.5655 8.28147C30.9147 6.11561 29.5401 4.35218 26.9958 3.81497C24.1189 3.20753 22.3519 3.90207 21.3236 4.7703C20.2167 5.70503 19.8064 6.96072 19.8255 7.67979L16.3267 7.77229Z" fill="#0071C9"/>
</svg>
