<svg width="151" height="24" viewBox="0 0 151 24" fill="none" xmlns="http://www.w3.org/2000/svg">
<path d="M2.16 22.488C1.888 22.488 1.56 22.472 1.176 22.44C0.808 22.408 0.432 22.352 0.048 22.272V19.824C0.352 19.888 0.64 19.936 0.912 19.968C1.2 20 1.44 20.016 1.632 20.016C2.368 20.016 2.896 19.8 3.216 19.368C3.552 18.936 3.72 18.248 3.72 17.304V1.08H6.816V17.304C6.816 18.456 6.656 19.416 6.336 20.184C6.016 20.952 5.512 21.528 4.824 21.912C4.152 22.296 3.264 22.488 2.16 22.488ZM16.1833 18.24C14.1513 18.24 12.5593 17.68 11.4073 16.56C10.2553 15.44 9.67931 13.904 9.67931 11.952C9.67931 10.688 9.92731 9.584 10.4233 8.64C10.9193 7.696 11.6073 6.96 12.4873 6.432C13.3833 5.904 14.4233 5.64 15.6073 5.64C16.7753 5.64 17.7513 5.888 18.5353 6.384C19.3193 6.88 19.9113 7.576 20.3113 8.472C20.7273 9.368 20.9353 10.416 20.9353 11.616V12.408H12.1033V10.824H18.7993L18.3913 11.16C18.3913 10.04 18.1513 9.184 17.6713 8.592C17.2073 8 16.5273 7.704 15.6313 7.704C14.6393 7.704 13.8713 8.056 13.3273 8.76C12.7993 9.464 12.5353 10.448 12.5353 11.712V12.024C12.5353 13.336 12.8553 14.32 13.4953 14.976C14.1513 15.616 15.0713 15.936 16.2553 15.936C16.9433 15.936 17.5833 15.848 18.1753 15.672C18.7833 15.48 19.3593 15.176 19.9033 14.76L20.7913 16.776C20.2153 17.24 19.5273 17.6 18.7273 17.856C17.9273 18.112 17.0793 18.24 16.1833 18.24ZM23.4518 18V8.976C23.4518 8.464 23.4358 7.944 23.4038 7.416C23.3878 6.888 23.3478 6.376 23.2838 5.88H26.1878L26.5238 9.192H26.0438C26.2038 8.392 26.4678 7.728 26.8358 7.2C27.2198 6.672 27.6838 6.28 28.2278 6.024C28.7718 5.768 29.3638 5.64 30.0038 5.64C30.2918 5.64 30.5238 5.656 30.6998 5.688C30.8758 5.704 31.0518 5.744 31.2278 5.808L31.2038 8.448C30.8998 8.32 30.6358 8.24 30.4118 8.208C30.2038 8.176 29.9398 8.16 29.6198 8.16C28.9318 8.16 28.3478 8.304 27.8678 8.592C27.4038 8.88 27.0518 9.28 26.8118 9.792C26.5878 10.304 26.4758 10.888 26.4758 11.544V18H23.4518ZM32.8736 18V8.976C32.8736 8.464 32.8576 7.944 32.8256 7.416C32.8096 6.888 32.7696 6.376 32.7056 5.88H35.6096L35.9456 9.192H35.4656C35.6256 8.392 35.8896 7.728 36.2576 7.2C36.6416 6.672 37.1056 6.28 37.6496 6.024C38.1936 5.768 38.7856 5.64 39.4256 5.64C39.7136 5.64 39.9456 5.656 40.1216 5.688C40.2976 5.704 40.4736 5.744 40.6496 5.808L40.6256 8.448C40.3216 8.32 40.0576 8.24 39.8336 8.208C39.6256 8.176 39.3616 8.16 39.0416 8.16C38.3536 8.16 37.7696 8.304 37.2896 8.592C36.8256 8.88 36.4736 9.28 36.2336 9.792C36.0096 10.304 35.8976 10.888 35.8976 11.544V18H32.8736ZM42.8061 23.448L42.1101 21.072C42.8621 20.912 43.4941 20.728 44.0061 20.52C44.5181 20.312 44.9421 20.04 45.2781 19.704C45.6141 19.368 45.8941 18.936 46.1181 18.408L46.7181 16.992L46.6461 18.168L41.3661 5.88H44.5581L48.3501 15.336H47.6541L51.4701 5.88H54.4941L48.9741 18.672C48.6061 19.536 48.2061 20.248 47.7741 20.808C47.3421 21.384 46.8781 21.84 46.3821 22.176C45.8861 22.528 45.3421 22.8 44.7501 22.992C44.1581 23.184 43.5101 23.336 42.8061 23.448Z" fill="#4D4D4D"/>
<path d="M56.3173 18V1.08H67.7173V3.504H59.2933V8.184H67.1653V10.632H59.2933V15.552H67.7173V18H56.3173ZM74.9844 18.24C73.9284 18.24 72.9924 17.992 72.1764 17.496C71.3764 16.984 70.7524 16.256 70.3044 15.312C69.8564 14.368 69.6324 13.24 69.6324 11.928C69.6324 10.616 69.8564 9.496 70.3044 8.568C70.7524 7.624 71.3764 6.904 72.1764 6.408C72.9924 5.896 73.9284 5.64 74.9844 5.64C75.9924 5.64 76.8804 5.888 77.6484 6.384C78.4324 6.864 78.9524 7.52 79.2084 8.352H78.8964V0.335999H81.8964V18H78.9444V15.432H79.2324C78.9764 16.296 78.4564 16.984 77.6724 17.496C76.9044 17.992 76.0084 18.24 74.9844 18.24ZM75.8244 15.936C76.7684 15.936 77.5284 15.608 78.1044 14.952C78.6804 14.28 78.9684 13.272 78.9684 11.928C78.9684 10.584 78.6804 9.584 78.1044 8.928C77.5284 8.272 76.7684 7.944 75.8244 7.944C74.8804 7.944 74.1124 8.272 73.5204 8.928C72.9444 9.584 72.6564 10.584 72.6564 11.928C72.6564 13.272 72.9444 14.28 73.5204 14.952C74.1124 15.608 74.8804 15.936 75.8244 15.936ZM89.5312 18.24C88.0433 18.24 86.9313 17.832 86.1953 17.016C85.4593 16.2 85.0913 14.952 85.0913 13.272V5.88H88.0913V13.248C88.0913 14.144 88.2753 14.808 88.6433 15.24C89.0113 15.656 89.5713 15.864 90.3233 15.864C91.1713 15.864 91.8593 15.576 92.3873 15C92.9313 14.424 93.2033 13.664 93.2033 12.72V5.88H96.2032V18H93.2753V15.528H93.6113C93.2593 16.392 92.7233 17.064 92.0033 17.544C91.2993 18.008 90.4753 18.24 89.5312 18.24ZM104.14 18.24C103.084 18.24 102.156 17.992 101.356 17.496C100.556 16.984 99.9321 16.256 99.4841 15.312C99.0361 14.368 98.8121 13.24 98.8121 11.928C98.8121 10.616 99.0361 9.496 99.4841 8.568C99.9321 7.624 100.556 6.904 101.356 6.408C102.156 5.896 103.084 5.64 104.14 5.64C105.164 5.64 106.06 5.896 106.828 6.408C107.612 6.904 108.132 7.576 108.388 8.424H108.124L108.388 5.88H111.268C111.22 6.376 111.172 6.88 111.124 7.392C111.092 7.904 111.076 8.408 111.076 8.904V18H108.1L108.076 15.504H108.364C108.108 16.336 107.588 17 106.804 17.496C106.02 17.992 105.132 18.24 104.14 18.24ZM104.98 15.936C105.924 15.936 106.684 15.608 107.26 14.952C107.836 14.28 108.124 13.272 108.124 11.928C108.124 10.584 107.836 9.584 107.26 8.928C106.684 8.272 105.924 7.944 104.98 7.944C104.036 7.944 103.276 8.272 102.7 8.928C102.124 9.584 101.836 10.584 101.836 11.928C101.836 13.272 102.116 14.28 102.676 14.952C103.252 15.608 104.02 15.936 104.98 15.936ZM114.319 18V8.976C114.319 8.464 114.303 7.944 114.271 7.416C114.255 6.888 114.215 6.376 114.151 5.88H117.055L117.391 9.192H116.911C117.071 8.392 117.335 7.728 117.703 7.2C118.087 6.672 118.551 6.28 119.095 6.024C119.639 5.768 120.231 5.64 120.871 5.64C121.159 5.64 121.391 5.656 121.567 5.688C121.743 5.704 121.919 5.744 122.095 5.808L122.071 8.448C121.767 8.32 121.503 8.24 121.279 8.208C121.071 8.176 120.807 8.16 120.487 8.16C119.799 8.16 119.215 8.304 118.735 8.592C118.271 8.88 117.919 9.28 117.679 9.792C117.455 10.304 117.343 10.888 117.343 11.544V18H114.319ZM128.281 18.24C127.225 18.24 126.289 17.992 125.473 17.496C124.673 16.984 124.049 16.256 123.601 15.312C123.153 14.368 122.929 13.24 122.929 11.928C122.929 10.616 123.153 9.496 123.601 8.568C124.049 7.624 124.673 6.904 125.473 6.408C126.289 5.896 127.225 5.64 128.281 5.64C129.289 5.64 130.177 5.888 130.945 6.384C131.729 6.864 132.249 7.52 132.505 8.352H132.193V0.335999H135.193V18H132.241V15.432H132.529C132.273 16.296 131.753 16.984 130.969 17.496C130.201 17.992 129.305 18.24 128.281 18.24ZM129.121 15.936C130.065 15.936 130.825 15.608 131.401 14.952C131.977 14.28 132.265 13.272 132.265 11.928C132.265 10.584 131.977 9.584 131.401 8.928C130.825 8.272 130.065 7.944 129.121 7.944C128.177 7.944 127.409 8.272 126.817 8.928C126.241 9.584 125.953 10.584 125.953 11.928C125.953 13.272 126.241 14.28 126.817 14.952C127.409 15.608 128.177 15.936 129.121 15.936ZM143.932 18.24C142.684 18.24 141.604 17.984 140.692 17.472C139.78 16.96 139.068 16.232 138.556 15.288C138.06 14.344 137.812 13.224 137.812 11.928C137.812 10.632 138.06 9.52 138.556 8.592C139.068 7.648 139.78 6.92 140.692 6.408C141.604 5.896 142.684 5.64 143.932 5.64C145.18 5.64 146.26 5.896 147.172 6.408C148.1 6.92 148.812 7.648 149.308 8.592C149.82 9.52 150.076 10.632 150.076 11.928C150.076 13.224 149.82 14.344 149.308 15.288C148.812 16.232 148.1 16.96 147.172 17.472C146.26 17.984 145.18 18.24 143.932 18.24ZM143.932 15.936C144.876 15.936 145.628 15.608 146.188 14.952C146.748 14.28 147.028 13.272 147.028 11.928C147.028 10.584 146.748 9.584 146.188 8.928C145.628 8.272 144.876 7.944 143.932 7.944C142.988 7.944 142.236 8.272 141.676 8.928C141.116 9.584 140.836 10.584 140.836 11.928C140.836 13.272 141.116 14.28 141.676 14.952C142.236 15.608 142.988 15.936 143.932 15.936Z" fill="#0071C9"/>
</svg>
